<?xml version="1.0" standalone="no"?>
<!DOCTYPE svg PUBLIC "-//W3C//DTD SVG 20010904//EN"
 "http://www.w3.org/TR/2001/REC-SVG-20010904/DTD/svg10.dtd">
<svg version="1.0" xmlns="http://www.w3.org/2000/svg"
 width="360.000000pt" height="360.000000pt" viewBox="0 0 360.000000 360.000000"
 preserveAspectRatio="xMidYMid meet">
<metadata>
Created by potrace 1.11, written by Peter Selinger 2001-2013
</metadata>
<g transform="translate(0.000000,360.000000) scale(0.100000,-0.100000)"
fill="#000000" stroke="none">
<path d="M1129 3053 c0 -16 -2 -73 -4 -128 -8 -238 -16 -459 -20 -585 -2 -74
-7 -211 -10 -305 -8 -260 -16 -465 -20 -517 -3 -38 -12 -57 -52 -107 l-48 -61
-63 0 c-34 0 -78 7 -97 14 -30 13 -35 20 -36 50 -1 20 -3 45 -4 56 -1 11 -3
53 -4 93 -1 72 -1 73 -58 149 l-58 77 -194 0 -194 1 7 -72 c3 -40 8 -120 12
-178 10 -188 103 -476 173 -540 4 -3 24 -27 46 -55 133 -166 283 -236 510
-240 132 -2 221 27 325 107 74 57 145 143 173 212 28 68 100 342 103 391 2 33
6 92 9 130 3 39 8 370 11 737 l7 668 -65 65 -65 65 -192 0 -191 0 -1 -27z
m135 -45 c24 -29 41 -54 35 -56 -5 -2 -32 17 -61 42 -29 25 -56 46 -60 46 -5
0 -8 5 -8 10 0 6 11 10 24 10 17 0 38 -16 70 -52z m52 -5 c26 -31 42 -54 34
-51 -18 6 -106 108 -93 108 6 0 32 -25 59 -57z m58 7 c50 -55 53 -60 33 -60
-12 0 -57 43 -96 93 -11 14 -11 17 1 17 8 0 36 -23 62 -50z m75 -2 c45 -47 48
-53 29 -56 -20 -4 -30 5 -102 86 -19 22 -19 22 1 22 12 0 43 -23 72 -52z m64
-3 c36 -41 44 -55 30 -54 -25 0 -121 109 -96 109 10 0 40 -25 66 -55z m87 -54
c0 -9 -71 63 -82 84 -6 11 10 -2 35 -29 26 -27 47 -52 47 -55z m-312 -37 c6
-23 -6 -16 -73 39 -35 28 -64 60 -64 70 -1 14 17 3 67 -39 37 -31 68 -63 70
-70z m2 -72 c0 -23 0 -23 -23 -5 -92 73 -117 99 -117 120 0 21 7 18 70 -34 49
-41 70 -65 70 -81z m325 -352 c-3 -239 -8 -507 -10 -595 -2 -88 -5 -205 -6
-261 -1 -56 -5 -123 -9 -150 -5 -27 -11 -80 -15 -117 -15 -161 -117 -416 -194
-485 -114 -103 -113 -102 -189 -128 -57 -19 -84 -22 -182 -19 -164 4 -233 23
-340 95 -87 58 -88 60 -115 132 -15 40 -34 88 -41 106 -7 18 -16 49 -19 70 -3
21 -7 47 -9 57 -13 70 -19 148 -21 273 l-2 142 36 1 c20 1 50 3 66 4 51 4 129
7 155 6 25 -1 25 -2 26 -93 1 -102 8 -151 29 -215 38 -114 91 -185 148 -201
110 -30 226 17 289 119 53 85 78 232 84 497 8 387 13 746 14 972 l0 225 155 0
156 1 -6 -436z m-382 347 c51 -45 72 -77 48 -77 -8 0 -73 53 -119 98 -13 12
-20 27 -17 32 8 13 17 7 88 -53z m14 -80 c23 -18 43 -40 43 -50 0 -14 -19 -3
-75 44 -41 34 -75 65 -75 69 0 19 15 16 39 -6 14 -14 45 -39 68 -57z m-2 -60
c63 -56 53 -73 -12 -21 -84 69 -93 77 -93 91 0 17 29 -3 105 -70z m1 -61 c27
-24 46 -47 42 -51 -6 -7 -28 9 -130 95 -10 8 -18 21 -18 28 0 16 36 -8 106
-72z m-21 -40 c33 -27 62 -51 64 -52 1 -2 0 -8 -4 -13 -7 -13 -138 94 -143
117 -5 19 9 11 83 -52z m-15 -45 c3 -4 21 -20 40 -36 33 -29 51 -65 32 -65
-10 0 -142 108 -143 118 0 4 -2 15 -4 25 -3 15 3 14 33 -9 20 -16 39 -30 42
-33z m4 -80 c40 -33 73 -67 73 -75 0 -9 -2 -16 -4 -16 -14 0 -153 124 -153
136 0 8 3 14 6 14 3 0 38 -27 78 -59z m41 -99 c28 -24 41 -70 17 -65 -6 2 -41
26 -77 55 -53 43 -65 57 -65 81 l0 29 48 -38 c26 -21 60 -49 77 -62z m-45 -48
c62 -51 93 -94 69 -94 -22 0 -149 112 -149 130 0 11 3 20 6 20 3 0 36 -25 74
-56z m-4 -71 c54 -42 74 -64 74 -80 0 -29 -1 -29 -36 3 -16 14 -48 39 -71 56
-24 17 -43 34 -44 37 0 3 -2 14 -4 24 -2 9 -1 17 2 17 2 0 38 -26 79 -57z m7
-81 c41 -33 67 -62 67 -74 0 -24 -5 -21 -92 50 -42 33 -68 62 -68 74 0 24 5
21 93 -50z m-7 -67 c66 -51 76 -62 72 -83 -3 -18 -13 -13 -78 40 -52 42 -76
68 -78 85 l-4 26 25 -19 c13 -10 42 -32 63 -49z m0 -76 c47 -38 74 -68 74 -80
0 -24 -4 -22 -92 49 -41 32 -68 62 -68 73 0 11 3 19 6 19 3 0 39 -27 80 -61z
m7 -79 c53 -42 76 -74 63 -87 -6 -7 -153 107 -160 125 -4 8 -4 18 0 23 6 10
12 6 97 -61z m64 -137 c0 -20 -5 -17 -80 45 -39 31 -75 60 -80 63 -5 4 -6 12
-3 18 8 13 162 -107 163 -126z m-74 10 c51 -42 75 -69 74 -82 -1 -16 -15 -9
-82 43 -50 40 -81 72 -83 86 -5 30 3 26 91 -47z m-23 -54 c80 -61 98 -82 91
-106 -6 -22 -6 -22 -39 6 -18 16 -52 44 -77 62 -34 26 -44 41 -45 63 0 21 3
26 13 19 6 -5 32 -25 57 -44z m-761 -65 c65 -61 85 -89 48 -67 -33 18 -148
133 -134 133 8 0 47 -30 86 -66z m54 2 c38 -35 65 -66 60 -69 -4 -3 -41 26
-81 64 -40 38 -67 69 -60 69 7 0 44 -29 81 -64z m55 -1 c87 -84 68 -84 -23 0
-38 36 -64 65 -57 65 7 0 42 -29 80 -65z m62 0 c35 -36 58 -65 49 -65 -8 0
-44 29 -79 65 -35 36 -58 65 -49 65 8 0 44 -29 79 -65z m64 4 c91 -97 52 -93
-44 5 -45 46 -51 56 -33 56 12 0 43 -24 77 -61z m1 41 c10 -11 16 -20 13 -20
-3 0 -13 9 -23 20 -10 11 -16 20 -13 20 3 0 13 -9 23 -20z m-274 -68 c57 -53
73 -80 60 -101 -5 -7 -21 1 -47 23 -21 19 -51 44 -67 57 -19 16 -29 37 -32 63
-6 45 -10 46 86 -42z m818 -12 c49 -39 70 -62 71 -77 0 -22 -15 -32 -22 -15
-1 4 -33 32 -70 61 -39 32 -68 63 -71 77 -5 28 -2 27 92 -46z m3 -77 c49 -40
66 -59 66 -78 0 -14 -4 -25 -8 -25 -4 0 -42 27 -84 61 -64 51 -76 65 -76 90 0
34 -7 38 102 -48z m-814 -12 c28 -24 52 -50 52 -58 0 -11 -7 -9 -28 9 -16 12
-48 38 -70 57 -23 19 -42 41 -42 49 0 17 0 16 88 -57z m3 -61 c30 -25 54 -51
51 -58 -6 -19 -142 95 -142 120 0 11 5 8 91 -62z m801 -8 c54 -44 64 -57 60
-77 -4 -23 -7 -22 -77 38 -50 42 -74 69 -74 85 -1 27 1 26 91 -46z m-797 -56
c28 -25 46 -45 40 -45 -5 0 -37 24 -70 55 -33 30 -51 51 -40 45 11 -5 43 -30
70 -55z m781 -12 c46 -40 64 -63 64 -81 l0 -24 -27 20 c-63 45 -117 99 -118
120 -2 32 12 26 81 -35z m-786 -29 c41 -35 69 -75 53 -75 -14 0 -133 113 -133
127 0 18 -3 20 80 -52z m744 -17 c94 -78 99 -84 89 -102 -8 -15 -14 -13 -48
16 -87 72 -118 105 -111 116 10 17 13 16 70 -30z m-684 -106 c0 -14 -45 18
-102 71 -55 51 -27 47 37 -5 36 -29 65 -59 65 -66z m660 48 c8 -8 32 -28 53
-44 41 -33 42 -35 25 -59 -12 -15 -19 -11 -73 39 -33 30 -70 62 -83 71 -21 15
-22 17 -6 35 19 20 14 22 84 -42z m-650 -112 c0 -5 -27 13 -60 42 -33 29 -60
56 -60 62 0 5 27 -13 60 -42 33 -29 60 -56 60 -62z m460 21 c36 -40 75 -84 88
-98 12 -13 22 -25 22 -26 0 -1 -15 0 -52 4 -7 1 -110 133 -143 185 -19 29 -19
29 1 18 11 -6 49 -43 84 -83z m103 77 c9 -7 46 -39 82 -71 60 -53 64 -59 48
-71 -31 -24 -47 -16 -127 65 -73 73 -77 80 -55 84 13 2 26 5 29 5 3 1 13 -5
23 -12z m-18 -86 c73 -73 87 -92 75 -100 -24 -15 -9 -29 -157 139 -18 20 -33
39 -33 44 0 23 35 -3 115 -83z m-65 -107 c0 -2 -4 -3 -10 -3 -20 0 -79 62 -98
103 -41 89 -32 89 37 -2 39 -52 71 -96 71 -98z m-534 102 c22 -19 42 -35 45
-35 4 0 10 -7 13 -16 5 -13 3 -14 -6 -7 -69 52 -98 78 -98 85 0 13 6 10 46
-27z m47 -85 c30 -26 37 -46 10 -31 -30 16 -83 69 -83 82 0 8 9 4 23 -8 12
-11 34 -31 50 -43z m43 -92 c4 -6 -14 4 -39 23 -25 19 -46 38 -47 42 0 10 76
-48 86 -65z m-25 -15 c13 -17 13 -17 -6 -3 -11 8 -22 16 -24 17 -2 2 0 3 6 3
6 0 17 -8 24 -17z m40 -30 c13 -16 12 -17 -3 -4 -10 7 -18 15 -18 17 0 8 8 3
21 -13z"/>
<path d="M2510 3063 c-46 -8 -134 -34 -218 -65 -72 -27 -90 -39 -142 -94 -167
-179 -250 -384 -286 -709 -3 -27 -8 -61 -11 -75 -9 -46 -12 -474 -3 -555 35
-340 152 -544 435 -759 103 -79 144 -91 300 -91 179 0 271 19 370 75 79 45
189 153 240 234 l45 73 0 109 0 109 -82 83 -81 82 -177 0 -177 0 -7 -32 c-10
-49 -55 -135 -89 -168 -36 -35 -88 -54 -122 -46 -36 9 -93 63 -117 109 -51
100 -76 246 -77 452 -3 441 136 735 348 735 52 0 52 0 71 -42 11 -24 20 -63
20 -89 0 -49 -10 -39 158 -163 8 -5 48 -9 90 -8 83 2 235 12 238 15 1 1 5 47
9 102 5 86 3 109 -15 165 -28 83 -71 164 -118 221 -20 25 -57 77 -80 115 -96
154 -327 250 -522 217z m100 -79 c17 -36 30 -68 30 -70 0 -2 -10 -4 -22 -4
-18 0 -28 12 -45 53 -37 87 -37 87 -14 87 17 0 28 -14 51 -66z m70 0 c17 -36
30 -68 30 -70 0 -2 -10 -4 -22 -4 -22 0 -29 11 -75 128 -3 7 3 12 16 12 17 0
28 -14 51 -66z m-139 -1 c13 -32 26 -61 27 -65 2 -4 -7 -8 -21 -8 -20 0 -29
10 -50 57 -19 42 -23 59 -14 65 24 15 34 7 58 -49z m207 -8 c32 -64 32 -65 9
-65 -18 0 -27 13 -49 65 -24 58 -25 65 -10 65 12 0 29 -23 50 -65z m-250 -70
c-33 -25 -42 -22 -61 18 -38 85 -39 87 -14 96 20 8 25 3 50 -52 15 -33 26 -61
25 -62z m312 68 c35 -55 36 -63 12 -63 -12 0 -27 19 -45 55 -21 44 -24 55 -12
55 9 0 29 -21 45 -47z m-405 -29 c27 -64 28 -67 10 -80 -10 -8 -22 -14 -25
-14 -4 0 -21 31 -37 69 l-31 68 27 10 c14 6 26 11 27 12 1 1 14 -29 29 -65z
m483 -1 c10 -16 24 -38 31 -50 11 -22 11 -22 -15 -11 -15 7 -36 33 -50 61 -23
45 -23 47 -5 38 11 -6 28 -23 39 -38z m-558 -29 c34 -75 36 -89 15 -98 -10 -4
-25 15 -51 66 -33 68 -34 73 -18 85 10 7 19 13 21 13 2 0 17 -30 33 -66z m-55
-43 c33 -68 36 -82 25 -96 -11 -14 -17 -9 -51 37 -62 87 -65 95 -44 118 10 11
21 20 25 20 3 0 23 -36 45 -79z m728 -17 l26 -44 -32 22 c-19 12 -43 39 -54
60 l-21 38 27 -16 c15 -9 39 -36 54 -60z m-784 -36 c46 -64 50 -74 38 -92 -8
-11 -18 -21 -23 -23 -9 -2 -104 128 -104 143 0 7 30 44 36 44 1 0 25 -32 53
-72z m703 30 c149 -79 229 -175 284 -340 21 -62 24 -82 18 -157 -3 -47 -7 -87
-9 -89 -1 -1 -62 -5 -136 -8 -74 -3 -139 -7 -145 -9 -8 -2 -16 26 -24 78 -15
97 -36 143 -84 185 -58 51 -194 61 -273 21 -135 -69 -224 -257 -258 -544 -7
-53 -7 -343 -1 -385 2 -14 7 -52 11 -85 10 -86 51 -220 88 -289 41 -78 116
-153 161 -161 53 -10 152 7 204 36 44 25 85 70 128 141 l35 58 150 0 150 0 -3
-103 -4 -103 -47 -72 c-131 -196 -311 -288 -569 -290 -211 -2 -306 55 -416
248 -36 65 -105 275 -121 375 -7 39 -14 84 -17 100 -22 126 -28 467 -9 580 74
461 205 719 417 820 l72 35 160 0 159 0 79 -42z m-755 -101 c47 -66 50 -75 38
-96 -12 -24 -13 -23 -69 52 -50 68 -55 79 -44 97 7 11 15 20 19 20 3 0 28 -33
56 -73z m-34 -77 c42 -60 44 -67 32 -90 -7 -14 -16 -24 -20 -23 -10 3 -115
141 -115 150 0 5 7 19 16 32 19 27 19 27 87 -69z m-56 -68 l61 -78 -15 -35
c-12 -29 -16 -32 -26 -19 -7 9 -33 44 -59 77 -27 34 -48 66 -48 72 0 9 21 61
25 61 1 0 29 -35 62 -78z m-38 -92 c50 -64 60 -84 55 -104 -5 -23 -11 -19 -69
58 -47 62 -62 89 -58 105 3 11 6 21 8 21 1 0 30 -36 64 -80z m771 -13 c8 -7
22 -21 30 -32 11 -14 2 -11 -40 12 -61 35 -80 59 -33 42 15 -5 35 -15 43 -22z
m-790 -61 c49 -62 60 -82 53 -97 -7 -17 -15 -10 -64 53 -70 92 -70 93 -63 113
4 9 8 15 9 13 1 -2 31 -38 65 -82z m839 -16 c9 0 25 -49 18 -56 -10 -10 -102
65 -105 85 l-4 22 41 -25 c22 -14 45 -26 50 -26z m-860 -50 c41 -53 61 -88 59
-102 -2 -17 -17 -3 -70 66 -38 50 -64 93 -61 102 3 8 6 14 7 14 2 0 31 -36 65
-80z m844 -18 c28 -21 47 -42 47 -53 0 -23 -5 -21 -73 31 -26 19 -47 43 -47
53 0 20 2 20 73 -31z m-855 -51 c49 -63 60 -84 54 -100 -6 -18 -15 -11 -70 58
-54 69 -78 121 -54 121 4 0 35 -36 70 -79z m-15 -77 c51 -64 71 -105 50 -104
-17 1 -123 149 -123 171 0 26 -3 29 73 -67z m-10 -70 c51 -64 72 -114 48 -114
-8 0 -109 110 -123 134 -8 14 2 70 12 59 4 -4 32 -40 63 -79z m44 -176 c-1
-16 -4 -28 -8 -28 -6 0 -81 84 -116 131 -7 8 -9 25 -6 38 5 22 11 18 69 -45
48 -53 63 -75 61 -96z m-8 -98 l1 -35 -65 70 c-53 58 -64 76 -64 105 l0 35 64
-70 c53 -58 64 -76 64 -105z m-31 -33 c15 -15 27 -41 28 -59 l2 -32 -32 35
c-77 84 -106 124 -106 148 0 25 2 24 41 -19 23 -25 53 -57 67 -73z m0 -90 c22
-26 32 -48 32 -70 l-1 -32 -69 73 c-61 64 -70 79 -70 110 l0 37 38 -40 c20
-22 52 -57 70 -78z m-36 -64 c55 -57 77 -89 78 -110 0 -26 -26 -11 -87 49 -52
52 -63 68 -63 96 0 40 4 38 72 -35z m13 -111 c38 -36 68 -74 71 -89 4 -22 -3
-19 -70 36 -55 47 -75 69 -78 92 -3 16 -1 28 3 27 4 -2 37 -31 74 -66z m42
-118 c30 -29 43 -49 47 -77 l5 -37 -75 62 c-87 71 -79 62 -88 112 l-7 39 38
-30 c21 -17 57 -48 80 -69z m887 -70 c36 -36 66 -68 66 -70 0 -2 -8 -4 -18 -4
-10 0 -49 32 -87 70 -56 56 -65 70 -48 70 13 0 47 -26 87 -66z m91 1 c36 -35
65 -67 65 -70 0 -3 -11 -5 -25 -5 -17 0 -46 21 -95 70 -69 69 -70 70 -40 70
24 0 44 -14 95 -65z m81 0 c35 -35 64 -67 64 -70 0 -3 -8 -5 -19 -5 -10 0 -50
32 -89 70 -63 63 -68 70 -46 70 18 0 45 -19 90 -65z m39 46 c11 -9 42 -41 70
-69 47 -50 48 -52 24 -52 -19 0 -45 19 -93 65 -36 36 -66 68 -66 70 0 12 47 2
65 -14z m-195 -146 c0 -6 -5 -16 -11 -22 -8 -8 -30 8 -81 60 -58 60 -68 75
-63 96 6 23 10 21 81 -50 41 -40 74 -78 74 -84z m-904 68 c36 -30 64 -63 66
-77 l5 -25 -41 30 c-82 59 -117 94 -122 123 -6 34 -8 35 92 -51z m804 -53 c62
-63 78 -90 50 -90 -17 0 -135 127 -132 143 2 9 5 17 8 17 2 0 36 -32 74 -70z
m-780 -43 c40 -32 66 -62 68 -76 3 -19 1 -21 -10 -12 -7 6 -41 32 -75 57 -38
27 -65 56 -72 74 -9 27 -8 29 7 20 9 -5 46 -33 82 -63z m810 -75 c0 -29 -24
-16 -84 44 -51 51 -64 70 -56 80 9 10 25 -1 76 -51 35 -34 64 -67 64 -73z
m-375 40 c-2 -2 5 -22 15 -43 27 -52 25 -60 -6 -18 -23 31 -64 106 -64 118 0
2 13 -8 30 -24 16 -16 28 -31 25 -33z m279 -16 c57 -55 64 -65 51 -76 -18 -15
-15 -18 -78 67 -44 58 -53 73 -43 73 3 0 34 -29 70 -64z m-36 -33 c43 -58 48
-69 34 -75 -32 -13 -40 -8 -80 54 -31 46 -38 65 -30 75 6 7 14 13 18 13 4 0
31 -30 58 -67z m-662 2 c60 -43 92 -80 80 -92 -9 -9 -132 86 -144 112 -6 14
-9 25 -6 25 4 0 35 -20 70 -45z m475 25 c10 -6 37 -37 58 -70 31 -47 36 -60
23 -59 -37 1 -53 17 -82 77 -31 65 -31 68 1 52z m118 -52 c34 -54 38 -64 23
-69 -12 -4 -28 10 -59 55 -43 61 -43 64 -6 75 1 1 20 -27 42 -61z m-489 -129
c11 -20 10 -20 -30 3 -23 13 -56 41 -73 63 l-32 39 62 -42 c35 -23 67 -52 73
-63z m53 -91 l17 -30 -32 27 c-18 16 -39 37 -47 48 -14 20 -14 20 15 3 16 -10
37 -31 47 -48z"/>
</g>
</svg>
