<?xml version="1.0" encoding="UTF-8"?>
<svg width="1280px" height="518px" viewBox="0 0 1280 518" version="1.1" xmlns="http://www.w3.org/2000/svg" xmlns:xlink="http://www.w3.org/1999/xlink">
    <!-- Generator: Sketch 49.3 (51167) - http://www.bohemiancoding.com/sketch -->
    <title>icon</title>
    <desc>Created with Sketch.</desc>
    <defs></defs>
    <g id="icon" stroke="none" stroke-width="1" fill="none" fill-rule="evenodd">
        <path d="M921.148512,20.5887236 C899.403897,20.5887236 881.612849,42.7286953 881.612849,70.0083033 C881.612849,97.2879113 899.403897,119.427883 921.148512,119.427883 C942.893128,119.427883 960.684176,97.2879113 960.684176,70.0083033 C960.684176,42.7286953 942.893128,20.5887236 921.148512,20.5887236 Z M879.833744,119.427883 C858.879842,120.416275 842.077185,137.614288 842.077185,158.963547 L842.077185,178.731379 L1000.21984,178.731379 L1000.21984,158.963547 C1000.21984,137.614288 983.614861,120.416275 962.463281,119.427883 C951.788652,131.48626 937.160456,139.195715 921.148512,139.195715 C905.136569,139.195715 890.508373,131.48626 879.833744,119.427883 Z" id="Shape" fill="#ADE4E0" fill-rule="nonzero"></path>
        <path d="M347.216288,20.8425507 L347.216288,43.3618365 L437.293431,43.3618365 L437.293431,155.958266 L347.216288,155.958266 L347.216288,178.477552 L459.812717,178.477552 L459.812717,20.8425507 L347.216288,20.8425507 Z M369.735573,65.8811224 L369.735573,88.4004082 L279.65843,88.4004082 L279.65843,110.919694 L369.735573,110.919694 L369.735573,133.43898 L414.774145,99.6600511 L369.735573,65.8811224 Z" id="Shape" fill="#ADE4E0" fill-rule="nonzero"></path>
        <polygon id="Shape" fill="#FFFFFF" fill-rule="nonzero" points="653.679164 70.3172727 646.08472 77.8610343 662.559356 94.3356706 618.934647 94.3356706 618.934647 104.984432 662.559356 104.984432 646.08472 121.459068 653.679164 129.00283 682.955255 99.6600511"></polygon>
        <polygon id="Shape-Copy" fill="#FFFFFF" fill-rule="nonzero" points="653.546929 391.58553 645.952557 399.160377 662.427036 415.7029 618.802743 415.7029 618.802743 426.395541 662.427036 426.395541 645.952557 442.938063 653.546929 450.51291 682.82274 421.04922"></polygon>
        <polygon id="Shape" fill="#ADE4E0" fill-rule="nonzero" points="886.759759 342.04922 886.759759 500.04922 926.259759 460.54922 965.759759 500.04922 965.759759 342.04922"></polygon>
        <path d="M337.857327,342.04922 C325.115392,342.04922 313.763486,347.377666 305.191638,355.717842 C296.851462,364.058018 291.523016,375.409924 291.523016,388.383531 C291.523016,401.125467 296.851462,412.477373 305.191638,421.04922 L384.191638,500.04922 L463.191638,421.04922 C471.531814,412.709044 476.86026,401.357138 476.86026,388.383531 C476.86026,375.641596 471.531814,364.289689 463.191638,355.717842 C454.851462,347.377666 443.499556,342.04922 430.525949,342.04922 C417.784013,342.04922 406.432107,347.377666 397.86026,355.717842 C389.520084,364.058018 384.191638,375.409924 384.191638,388.383531 C384.191638,375.641596 378.863192,364.289689 370.523016,355.717842 C362.18284,347.377666 350.830934,342.04922 337.857327,342.04922 Z" id="Shape" fill="#ADE4E0" fill-rule="nonzero"></path>
    </g>
</svg>