<?xml version="1.0" encoding="UTF-8"?>
<svg width="59px" height="59px" viewBox="0 0 59 59" version="1.1" xmlns="http://www.w3.org/2000/svg" xmlns:xlink="http://www.w3.org/1999/xlink">
    <!-- Generator: Sketch 52.5 (67469) - http://www.bohemiancoding.com/sketch -->
    <title>instagram</title>
    <desc>Created with Sketch.</desc>
    <g id="Page-1" stroke="none" stroke-width="1" fill="none" fill-rule="evenodd">
        <g id="Desktop-HD" transform="translate(-1052.000000, -586.000000)" fill="#272A2C" fill-rule="nonzero">
            <path d="M1094.40625,603.916333 L1094.40625,607.035958 C1094.40625,607.766083 1093.81379,608.361 1093.08367,608.361 L1089.96404,608.361 C1089.229,608.361 1088.64146,607.766083 1088.64146,607.035958 L1088.64146,603.916333 C1088.64146,603.186208 1089.229,602.59375 1089.96404,602.59375 L1093.08367,602.59375 C1093.81379,602.59375 1094.40625,603.186208 1094.40625,603.916333 Z M1081.5,622.115375 C1085.15308,622.115375 1088.12029,619.153083 1088.12029,615.497542 C1088.12029,611.842 1085.15308,608.884625 1081.5,608.884625 C1077.84446,608.884625 1074.88462,611.844458 1074.88462,615.5 C1074.88462,619.155542 1077.84446,622.115375 1081.5,622.115375 Z M1091.97496,614.025 C1092.04379,614.506833 1092.08804,614.9985 1092.08804,615.497542 C1092.08804,621.348375 1087.34838,626.088042 1081.5,626.088042 C1075.65162,626.088042 1070.91196,621.348375 1070.91196,615.5 C1070.91196,614.9985 1070.95621,614.509292 1071.02504,614.027458 C1071.09142,613.550542 1071.18729,613.085917 1071.31513,612.633583 L1068.59375,612.633583 L1068.59375,627.086125 C1068.59375,627.81625 1069.18621,628.408708 1069.91633,628.408708 L1093.08367,628.408708 C1093.81379,628.408708 1094.40625,627.81625 1094.40625,627.086125 L1094.40625,612.633583 L1091.68487,612.633583 C1091.80779,613.085917 1091.90612,613.550542 1091.97496,614.025 Z M1111,615.5 C1111,631.791375 1097.79138,645 1081.5,645 C1065.20862,645 1052,631.791375 1052,615.5 C1052,599.208625 1065.20862,586 1081.5,586 C1097.79138,586 1111,599.208625 1111,615.5 Z M1098.70833,602.261875 C1098.70833,600.069042 1096.93096,598.291667 1094.73813,598.291667 L1068.26187,598.291667 C1066.06904,598.291667 1064.29167,600.069042 1064.29167,602.261875 L1064.29167,628.735667 C1064.29167,630.930958 1066.06904,632.708333 1068.26187,632.708333 L1094.73813,632.708333 C1096.93096,632.708333 1098.70833,630.930958 1098.70833,628.735667 L1098.70833,602.261875 Z" id="instagram"></path>
        </g>
    </g>
</svg>