<?xml version="1.0" encoding="UTF-8"?>
<svg width="59px" height="59px" viewBox="0 0 59 59" version="1.1" xmlns="http://www.w3.org/2000/svg" xmlns:xlink="http://www.w3.org/1999/xlink">
    <!-- Generator: Sketch 52.5 (67469) - http://www.bohemiancoding.com/sketch -->
    <title>linkedin</title>
    <desc>Created with Sketch.</desc>
    <g id="Page-1" stroke="none" stroke-width="1" fill="none" fill-rule="evenodd">
        <g id="Desktop-HD" transform="translate(-695.000000, -584.000000)" fill="#272A2C" fill-rule="nonzero">
            <path d="M724.5,584 C708.208625,584 695,597.208625 695,613.5 C695,629.791375 708.208625,643 724.5,643 C740.791375,643 754,629.791375 754,613.5 C754,597.208625 740.791375,584 724.5,584 Z M719.583333,623.333333 L714.666667,623.333333 L714.666667,608.583333 L719.583333,608.583333 L719.583333,623.333333 Z M717.125,606.392958 C715.632792,606.392958 714.420833,605.173625 714.420833,603.666667 C714.420833,602.162167 715.630333,600.940375 717.125,600.940375 C718.619667,600.940375 719.829167,602.162167 719.829167,603.666667 C719.829167,605.173625 718.617208,606.392958 717.125,606.392958 Z M736.791667,623.333333 L731.879917,623.333333 L731.879917,616.300042 C731.879917,611.675917 726.958333,612.066792 726.958333,616.300042 L726.958333,623.333333 L722.041667,623.333333 L722.041667,608.583333 L726.958333,608.583333 L726.958333,611.270292 C729.102,607.297625 736.791667,607.002625 736.791667,615.075792 L736.791667,623.333333 Z" id="linkedin"></path>
        </g>
    </g>
</svg>