<?xml version="1.0" encoding="utf-8"?>
<!-- Generator: Adobe Illustrator 23.0.1, SVG Export Plug-In . SVG Version: 6.00 Build 0)  -->
<svg version="1.1" id="Layer_1" xmlns="http://www.w3.org/2000/svg" xmlns:xlink="http://www.w3.org/1999/xlink" x="0px" y="0px"
	 viewBox="0 0 59 59" style="enable-background:new 0 0 59 59;" xml:space="preserve">
<style type="text/css">
	.st0{fill-rule:evenodd;clip-rule:evenodd;fill:#272A2C;}
</style>
<title>resume</title>
<desc>Created with Sketch.</desc>
<path class="st0" d="M29.5,0C13.2,0,0,13.2,0,29.5S13.2,59,29.5,59S59,45.8,59,29.5S45.8,0,29.5,0z M41.8,43.5H17.2V14h10.3
	c6,0,4.1,9.8,4.1,9.8c3.7-0.9,10.2-0.5,10.2,3.7V43.5z M34.3,21.1c0.3-1.8-0.2-5.6-1.7-7c2.7,1.4,7.3,6,9.1,8.5
	C40.3,21.5,36.9,20.5,34.3,21.1z"/>
</svg>
